<?xml version="1.0" encoding="UTF-8"?>
<svg width="24px" height="24px" viewBox="0 0 24 24" version="1.1" xmlns="http://www.w3.org/2000/svg" xmlns:xlink="http://www.w3.org/1999/xlink">
    <title>circle-times</title>
    <g id="Page-1" stroke="none" stroke-width="1" fill="none" fill-rule="evenodd">
        <g id="circle-times" fill="#DA4F30" fill-rule="nonzero">
            <path d="M12,0 C5.371875,0 0,5.371875 0,12 C0,18.628125 5.371875,24 12,24 C18.628125,24 24,18.628125 24,12 C24,5.371875 18.628125,0 12,0 Z" id="Shape" opacity="0.247752162"></path>
            <path d="M16.5510465,14.6831379 C17.0836129,15.2132605 17.0836129,16.0719178 16.5510465,16.6023232 C16.0181392,17.1327851 15.1558644,17.1323327 14.623014,16.6023232 L12.0007988,13.9423799 L9.32916156,16.6017577 C8.79625428,17.1322196 7.93397951,17.1317673 7.40112904,16.6017577 C6.8685626,16.0716351 6.8685626,15.2129778 7.40112904,14.6825725 L10.0727663,12.0231946 L7.39942483,9.31688328 C6.86685839,8.78676065 6.86685839,7.92810336 7.39942483,7.397698 C7.93199127,6.86729264 8.79460688,6.86757537 9.32745735,7.397698 L12.0007988,10.1085331 L14.6724361,7.44915524 C15.2050026,6.91903261 16.0676182,6.91903261 16.6004687,7.44915524 C17.1333191,7.97927786 17.1330351,8.83793515 16.6004687,9.36834051 L13.9288314,12.0277183 L16.5510465,14.6831379 Z" id="Path"></path>
        </g>
    </g>
</svg>